<svg width="511.31396484375" height="86.25" id="svg"
  xmlns="http://www.w3.org/2000/svg" version="1.1"
  xmlns:xlink="http://www.w3.org/1999/xlink"
  xmlns:svgjs="http://svgjs.dev/svgjs">
  <svg stroke="#1f2328" opacity="1">
    <svg x="0" y="0">
      <svg stroke-linejoin="round" stroke-linecap="round" x="0">
        <line stroke-width="5" x1="24.150635094610966" y1="2.5" x2="2.5" y2="15" opacity="1"/>
        <line stroke-width="5" x1="24.150635094610966" y1="2.5" x2="24.150635094610966" y2="27.5" opacity="1"/>
        <line stroke-width="5" x1="24.150635094610966" y1="2.5" x2="45.80127018922193" y2="15" opacity="1"/>
        <line stroke-width="5" x1="2.5" y1="15" x2="24.150635094610966" y2="27.5" opacity="1"/>
        <line stroke-width="5" x1="2.5" y1="15" x2="2.5" y2="40" opacity="1"/>
        <line stroke-width="5" x1="2.5" y1="52.5" x2="2.5" y2="65" opacity="1"/>
        <line stroke-width="5" x1="2.5" y1="65" x2="24.150635094610966" y2="77.5" opacity="1"/>
        <line stroke-width="5" x1="24.150635094610966" y1="52.5" x2="24.150635094610966" y2="77.5" opacity="1"/>
        <line stroke-width="5" x1="24.150635094610966" y1="27.5" x2="24.150635094610966" y2="40" opacity="1"/>
        <line stroke-width="5" x1="2.5" y1="40" x2="45.80127018922193" y2="40" opacity="1"/>
      </svg>
    </svg>
    <svg x="48.30127018922193" y="48.30127018922193"/>
    <svg x="72.4519052838329" y="0">
      <svg stroke-linejoin="round" stroke-linecap="round" x="0">
        <line stroke-width="5" x1="24.150635094610966" y1="2.5" x2="2.5" y2="15" opacity="1"/>
        <line stroke-width="5" x1="24.150635094610966" y1="2.5" x2="24.150635094610966" y2="27.5" opacity="1"/>
        <line stroke-width="5" x1="24.150635094610966" y1="2.5" x2="45.80127018922193" y2="15" opacity="1"/>
        <line stroke-width="5" x1="45.80127018922193" y1="15" x2="24.150635094610966" y2="27.5" opacity="1"/>
        <line stroke-width="5" x1="2.5" y1="15" x2="2.5" y2="40" opacity="1"/>
        <line stroke-width="5" x1="2.5" y1="52.5" x2="2.5" y2="65" opacity="1"/>
        <line stroke-width="5" x1="24.150635094610966" y1="52.5" x2="45.80127018922193" y2="65" opacity="1"/>
        <line stroke-width="5" x1="24.150635094610966" y1="27.5" x2="24.150635094610966" y2="40" opacity="1"/>
        <line stroke-width="5" x1="2.5" y1="40" x2="45.80127018922193" y2="40" opacity="1"/>
      </svg>
      <svg stroke-linejoin="round" stroke-linecap="round" x="43.30127018922193">
        <line stroke-width="5" x1="2.5" y1="15" x2="24.150635094610966" y2="27.5" opacity="1"/>
        <line stroke-width="5" x1="24.150635094610966" y1="52.5" x2="2.5" y2="65" opacity="1"/>
        <line stroke-width="5" x1="24.150635094610966" y1="52.5" x2="45.80127018922193" y2="65" opacity="1"/>
        <line stroke-width="5" x1="2.5" y1="40" x2="45.80127018922193" y2="40" opacity="1"/>
      </svg>
    </svg>
    <svg x="164.05444566227675" y="164.05444566227675"/>
    <svg x="188.20508075688772" y="0">
      <svg stroke-linejoin="round" stroke-linecap="round" x="0">
        <line stroke-width="5" x1="24.150635094610966" y1="2.5" x2="2.5" y2="15" opacity="1"/>
        <line stroke-width="5" x1="24.150635094610966" y1="2.5" x2="24.150635094610966" y2="27.5" opacity="1"/>
        <line stroke-width="5" x1="45.80127018922193" y1="15" x2="24.150635094610966" y2="27.5" opacity="1"/>
        <line stroke-width="5" x1="2.5" y1="15" x2="2.5" y2="40" opacity="1"/>
        <line stroke-width="5" x1="2.5" y1="52.5" x2="2.5" y2="65" opacity="1"/>
        <line stroke-width="5" x1="24.150635094610966" y1="52.5" x2="45.80127018922193" y2="65" opacity="1"/>
        <line stroke-width="5" x1="24.150635094610966" y1="27.5" x2="24.150635094610966" y2="40" opacity="1"/>
        <line stroke-width="5" x1="2.5" y1="40" x2="45.80127018922193" y2="40" opacity="1"/>
      </svg>
      <svg stroke-linejoin="round" stroke-linecap="round" x="43.30127018922193">
        <line stroke-width="5" x1="24.150635094610966" y1="2.5" x2="24.150635094610966" y2="27.5" opacity="1"/>
        <line stroke-width="5" x1="24.150635094610966" y1="52.5" x2="24.150635094610966" y2="77.5" opacity="1"/>
        <line stroke-width="5" x1="24.150635094610966" y1="27.5" x2="24.150635094610966" y2="40" opacity="1"/>
        <line stroke-width="5" x1="2.5" y1="40" x2="45.80127018922193" y2="40" opacity="1"/>
      </svg>
    </svg>
    <svg x="279.8076211353316" y="279.8076211353316"/>
    <svg x="303.95825622994255" y="0">
      <svg stroke-linejoin="round" stroke-linecap="round" x="0">
        <line stroke-width="5" x1="24.150635094610966" y1="2.5" x2="2.5" y2="15" opacity="1"/>
        <line stroke-width="5" x1="2.5" y1="15" x2="2.5" y2="40" opacity="1"/>
        <line stroke-width="5" x1="2.5" y1="52.5" x2="2.5" y2="65" opacity="1"/>
        <line stroke-width="5" x1="24.150635094610966" y1="52.5" x2="2.5" y2="65" opacity="1"/>
        <line stroke-width="5" x1="24.150635094610966" y1="52.5" x2="45.80127018922193" y2="65" opacity="1"/>
        <line stroke-width="5" x1="2.5" y1="65" x2="24.150635094610966" y2="77.5" opacity="1"/>
        <line stroke-width="5" x1="45.80127018922193" y1="65" x2="24.150635094610966" y2="77.5" opacity="1"/>
        <line stroke-width="5" x1="2.5" y1="40" x2="45.80127018922193" y2="40" opacity="1"/>
      </svg>
    </svg>
    <svg x="352.2595264191645" y="352.2595264191645"/>
    <svg x="376.41016151377545" y="0">
      <svg stroke-linejoin="round" stroke-linecap="round" x="0">
        <line stroke-width="5" x1="24.150635094610966" y1="2.5" x2="24.150635094610966" y2="27.5" opacity="1"/>
        <line stroke-width="5" x1="24.150635094610966" y1="2.5" x2="45.80127018922193" y2="15" opacity="1"/>
        <line stroke-width="5" x1="2.5" y1="15" x2="2.5" y2="40" opacity="1"/>
        <line stroke-width="5" x1="2.5" y1="52.5" x2="2.5" y2="65" opacity="1"/>
        <line stroke-width="5" x1="2.5" y1="65" x2="18.737976320958225" y2="74.375" opacity="1"/>
        <line stroke-width="5" x1="24.150635094610966" y1="52.5" x2="24.150635094610966" y2="71.25" opacity="1"/>
        <line stroke-width="5" x1="45.80127018922193" y1="65" x2="29.563293868263706" y2="74.375" opacity="1"/>
        <circle fill-opacity="0" stroke-width="5" cx="24.150635094610966" cy="77.5" r="6.25" opacity="1"/>
        <polygon fill-opacity="0" stroke-linecap="round" stroke-width="5" points="24.150635094610966,71.25 34.97595264191645,77.5 24.150635094610966,83.75 13.325317547305483,77.5" opacity="0"/>
        <line stroke-width="5" x1="24.150635094610966" y1="27.5" x2="24.150635094610966" y2="40" opacity="1"/>
        <line stroke-width="5" x1="2.5" y1="40" x2="45.80127018922193" y2="40" opacity="1"/>
      </svg>
      <svg stroke-linejoin="round" stroke-linecap="round" x="43.30127018922193">
        <line stroke-width="5" x1="24.150635094610966" y1="2.5" x2="2.5" y2="15" opacity="1"/>
        <line stroke-width="5" x1="24.150635094610966" y1="2.5" x2="45.80127018922193" y2="15" opacity="1"/>
        <line stroke-width="5" x1="45.80127018922193" y1="15" x2="24.150635094610966" y2="27.5" opacity="1"/>
        <line stroke-width="5" x1="2.5" y1="15" x2="2.5" y2="40" opacity="1"/>
        <line stroke-width="5" x1="2.5" y1="52.5" x2="2.5" y2="65" opacity="1"/>
        <line stroke-width="5" x1="2.5" y1="65" x2="18.737976320958225" y2="74.375" opacity="1"/>
        <line stroke-width="5" x1="24.150635094610966" y1="52.5" x2="24.150635094610966" y2="71.25" opacity="1"/>
        <line stroke-width="5" x1="45.80127018922193" y1="65" x2="29.563293868263706" y2="74.375" opacity="1"/>
        <circle fill-opacity="0" stroke-width="5" cx="24.150635094610966" cy="77.5" r="6.25" opacity="1"/>
        <polygon fill-opacity="0" stroke-linecap="round" stroke-width="5" points="24.150635094610966,71.25 34.97595264191645,77.5 24.150635094610966,83.75 13.325317547305483,77.5" opacity="0"/>
        <line stroke-width="5" x1="24.150635094610966" y1="27.5" x2="24.150635094610966" y2="40" opacity="1"/>
        <line stroke-width="5" x1="2.5" y1="40" x2="45.80127018922193" y2="40" opacity="1"/>
      </svg>
      <svg stroke-linejoin="round" stroke-linecap="round" x="86.60254037844386">
        <line stroke-width="5" x1="24.150635094610966" y1="2.5" x2="2.5" y2="15" opacity="1"/>
        <line stroke-width="5" x1="2.5" y1="15" x2="24.150635094610966" y2="27.5" opacity="1"/>
        <line stroke-width="5" x1="24.150635094610966" y1="52.5" x2="2.5" y2="65" opacity="1"/>
        <line stroke-width="5" x1="24.150635094610966" y1="52.5" x2="45.80127018922193" y2="65" opacity="1"/>
        <circle fill-opacity="0" stroke-width="5" cx="24.150635094610966" cy="77.5" r="6.25" opacity="1"/>
        <polygon fill-opacity="0" stroke-linecap="round" stroke-width="5" points="24.150635094610966,71.25 34.97595264191645,77.5 24.150635094610966,83.75 13.325317547305483,77.5" opacity="0"/>
        <line stroke-width="5" x1="2.5" y1="40" x2="45.80127018922193" y2="40" opacity="1"/>
      </svg>
    </svg>
  </svg>
</svg>
